{
    "asset" : {
        "generator" : "Khronos glTF Blender I/O v1.6.16",
        "version" : "2.0"
    },
    "scene" : 0,
    "scenes" : [
        {
            "name" : "Scene",
            "nodes" : [
                0,
                1,
                2,
                3
            ]
        }
    ],
    "nodes" : [
        {
            "mesh" : 0,
            "name" : "Cube"
        },
        {
            "mesh" : 1,
            "name" : "Icosphere"
        },
        {
            "mesh" : 2,
            "name" : "Plane"
        },
        {
            "mesh" : 3,
            "name" : "Plane.001"
        }
    ],
    "materials" : [
        {
            "doubleSided" : true,
            "name" : "Material.001",
            "pbrMetallicRoughness" : {
                "baseColorTexture" : {
                    "index" : 0
                },
                "metallicFactor" : 0,
                "roughnessFactor" : 0.5
            }
        }
    ],
    "meshes" : [
        {
            "name" : "Cube",
            "primitives" : [
                {
                    "attributes" : {
                        "POSITION" : 0,
                        "NORMAL" : 1,
                        "TEXCOORD_0" : 2
                    },
                    "indices" : 3,
                    "material" : 0
                }
            ]
        },
        {
            "name" : "Icosphere",
            "primitives" : [
                {
                    "attributes" : {
                        "POSITION" : 4,
                        "NORMAL" : 5,
                        "TEXCOORD_0" : 6
                    },
                    "indices" : 7,
                    "material" : 0
                }
            ]
        },
        {
            "name" : "Plane",
            "primitives" : [
                {
                    "attributes" : {
                        "POSITION" : 8,
                        "NORMAL" : 9,
                        "TEXCOORD_0" : 10
                    },
                    "indices" : 11,
                    "material" : 0
                }
            ]
        },
        {
            "name" : "Plane.001",
            "primitives" : [
                {
                    "attributes" : {
                        "POSITION" : 12,
                        "NORMAL" : 13,
                        "TEXCOORD_0" : 14
                    },
                    "indices" : 15,
                    "material" : 0
                }
            ]
        }
    ],
    "textures" : [
        {
            "sampler" : 0,
            "source" : 0
        }
    ],
    "images" : [
        {
            "bufferView" : 4,
            "mimeType" : "image/png",
            "name" : "albedo"
        }
    ],
    "accessors" : [
        {
            "bufferView" : 0,
            "componentType" : 5126,
            "count" : 4825,
            "max" : [
                0.44254255294799805,
                1.7420167922973633,
                0.7459238767623901
            ],
            "min" : [
                -0.44254255294799805,
                0.584621250629425,
                -0.34481579065322876
            ],
            "type" : "VEC3"
        },
        {
            "bufferView" : 1,
            "componentType" : 5126,
            "count" : 4825,
            "type" : "VEC3"
        },
        {
            "bufferView" : 2,
            "componentType" : 5126,
            "count" : 4825,
            "type" : "VEC2"
        },
        {
            "bufferView" : 3,
            "componentType" : 5123,
            "count" : 24384,
            "type" : "SCALAR"
        },
        {
            "bufferView" : 5,
            "componentType" : 5126,
            "count" : 1028,
            "max" : [
                0.3499026596546173,
                1.3236554861068726,
                0.5142923593521118
            ],
            "min" : [
                -0.3499026596546173,
                1.0298410654067993,
                0.21932899951934814
            ],
            "type" : "VEC3"
        },
        {
            "bufferView" : 6,
            "componentType" : 5126,
            "count" : 1028,
            "type" : "VEC3"
        },
        {
            "bufferView" : 7,
            "componentType" : 5126,
            "count" : 1028,
            "type" : "VEC2"
        },
        {
            "bufferView" : 8,
            "componentType" : 5123,
            "count" : 5760,
            "type" : "SCALAR"
        },
        {
            "bufferView" : 9,
            "componentType" : 5126,
            "count" : 5364,
            "max" : [
                1.2424519062042236,
                0.7273324728012085,
                0.7744994163513184
            ],
            "min" : [
                -1.2424519062042236,
                -0.7324168682098389,
                -0.38438570499420166
            ],
            "type" : "VEC3"
        },
        {
            "bufferView" : 10,
            "componentType" : 5126,
            "count" : 5364,
            "type" : "VEC3"
        },
        {
            "bufferView" : 11,
            "componentType" : 5126,
            "count" : 5364,
            "type" : "VEC2"
        },
        {
            "bufferView" : 12,
            "componentType" : 5123,
            "count" : 29472,
            "type" : "SCALAR"
        },
        {
            "bufferView" : 13,
            "componentType" : 5126,
            "count" : 254,
            "max" : [
                0.23249466717243195,
                0.6532609462738037,
                -0.3069925606250763
            ],
            "min" : [
                -0.12952859699726105,
                -0.5497971177101135,
                -0.42244070768356323
            ],
            "type" : "VEC3"
        },
        {
            "bufferView" : 14,
            "componentType" : 5126,
            "count" : 254,
            "type" : "VEC3"
        },
        {
            "bufferView" : 15,
            "componentType" : 5126,
            "count" : 254,
            "type" : "VEC2"
        },
        {
            "bufferView" : 16,
            "componentType" : 5123,
            "count" : 1488,
            "type" : "SCALAR"
        }
    ],
    "bufferViews" : [
        {
            "buffer" : 0,
            "byteLength" : 57900,
            "byteOffset" : 0
        },
        {
            "buffer" : 0,
            "byteLength" : 57900,
            "byteOffset" : 57900
        },
        {
            "buffer" : 0,
            "byteLength" : 38600,
            "byteOffset" : 115800
        },
        {
            "buffer" : 0,
            "byteLength" : 48768,
            "byteOffset" : 154400
        },
        {
            "buffer" : 0,
            "byteLength" : 140120,
            "byteOffset" : 203168
        },
        {
            "buffer" : 0,
            "byteLength" : 12336,
            "byteOffset" : 343288
        },
        {
            "buffer" : 0,
            "byteLength" : 12336,
            "byteOffset" : 355624
        },
        {
            "buffer" : 0,
            "byteLength" : 8224,
            "byteOffset" : 367960
        },
        {
            "buffer" : 0,
            "byteLength" : 11520,
            "byteOffset" : 376184
        },
        {
            "buffer" : 0,
            "byteLength" : 64368,
            "byteOffset" : 387704
        },
        {
            "buffer" : 0,
            "byteLength" : 64368,
            "byteOffset" : 452072
        },
        {
            "buffer" : 0,
            "byteLength" : 42912,
            "byteOffset" : 516440
        },
        {
            "buffer" : 0,
            "byteLength" : 58944,
            "byteOffset" : 559352
        },
        {
            "buffer" : 0,
            "byteLength" : 3048,
            "byteOffset" : 618296
        },
        {
            "buffer" : 0,
            "byteLength" : 3048,
            "byteOffset" : 621344
        },
        {
            "buffer" : 0,
            "byteLength" : 2032,
            "byteOffset" : 624392
        },
        {
            "buffer" : 0,
            "byteLength" : 2976,
            "byteOffset" : 626424
        }
    ],
    "samplers" : [
        {
            "magFilter" : 9729,
            "minFilter" : 9987
        }
    ],
    "buffers" : [
        {
            "byteLength" : 629400,
            "uri" : "data:application/octet-stream;base64,"
        }
    ]
}
