{
    "asset" : {
        "generator" : "Khronos glTF Blender I/O v1.5.17",
        "version" : "2.0"
    },
    "scene" : 0,
    "scenes" : [
        {
            "name" : "Scene",
            "nodes" : [
                0,
                1,
                2,
                3
            ]
        }
    ],
    "nodes" : [
        {
            "mesh" : 0,
            "name" : "Cube"
        },
        {
            "mesh" : 1,
            "name" : "Icosphere"
        },
        {
            "mesh" : 2,
            "name" : "Plane"
        },
        {
            "mesh" : 3,
            "name" : "Plane.001"
        }
    ],
    "materials" : [
        {
            "doubleSided" : true,
            "name" : "Material",
            "pbrMetallicRoughness" : {
                "baseColorFactor" : [
                    0.800000011920929,
                    0.800000011920929,
                    0.800000011920929,
                    1
                ],
                "metallicFactor" : 0,
                "roughnessFactor" : 0.4000000059604645
            }
        }
    ],
    "meshes" : [
        {
            "name" : "Cube",
            "primitives" : [
                {
                    "attributes" : {
                        "POSITION" : 0,
                        "NORMAL" : 1,
                        "TEXCOORD_0" : 2
                    },
                    "indices" : 3,
                    "material" : 0
                }
            ]
        },
        {
            "name" : "Icosphere",
            "primitives" : [
                {
                    "attributes" : {
                        "POSITION" : 4,
                        "NORMAL" : 5,
                        "TEXCOORD_0" : 6
                    },
                    "indices" : 7
                }
            ]
        },
        {
            "name" : "Plane",
            "primitives" : [
                {
                    "attributes" : {
                        "POSITION" : 8,
                        "NORMAL" : 9,
                        "TEXCOORD_0" : 10
                    },
                    "indices" : 11
                }
            ]
        },
        {
            "name" : "Plane.001",
            "primitives" : [
                {
                    "attributes" : {
                        "POSITION" : 12,
                        "NORMAL" : 13,
                        "TEXCOORD_0" : 14
                    },
                    "indices" : 15
                }
            ]
        }
    ],
    "accessors" : [
        {
            "bufferView" : 0,
            "componentType" : 5126,
            "count" : 4682,
            "max" : [
                0.44254255294799805,
                1.7420167922973633,
                0.7459238767623901
            ],
            "min" : [
                -0.44254255294799805,
                0.584621250629425,
                -0.34481582045555115
            ],
            "type" : "VEC3"
        },
        {
            "bufferView" : 1,
            "componentType" : 5126,
            "count" : 4682,
            "type" : "VEC3"
        },
        {
            "bufferView" : 2,
            "componentType" : 5126,
            "count" : 4682,
            "type" : "VEC2"
        },
        {
            "bufferView" : 3,
            "componentType" : 5123,
            "count" : 24384,
            "type" : "SCALAR"
        },
        {
            "bufferView" : 4,
            "componentType" : 5126,
            "count" : 410,
            "max" : [
                0.3680623173713684,
                1.3142218589782715,
                0.515416145324707
            ],
            "min" : [
                -0.3680623173713684,
                1.0316743850708008,
                0.23286856710910797
            ],
            "type" : "VEC3"
        },
        {
            "bufferView" : 5,
            "componentType" : 5126,
            "count" : 410,
            "type" : "VEC3"
        },
        {
            "bufferView" : 6,
            "componentType" : 5126,
            "count" : 410,
            "type" : "VEC2"
        },
        {
            "bufferView" : 7,
            "componentType" : 5123,
            "count" : 1920,
            "type" : "SCALAR"
        },
        {
            "bufferView" : 8,
            "componentType" : 5126,
            "count" : 8311,
            "max" : [
                1.2424408197402954,
                0.727208137512207,
                0.7744905948638916
            ],
            "min" : [
                -1.2424408197402954,
                -0.7324152588844299,
                -0.38437992334365845
            ],
            "type" : "VEC3"
        },
        {
            "bufferView" : 9,
            "componentType" : 5126,
            "count" : 8311,
            "type" : "VEC3"
        },
        {
            "bufferView" : 10,
            "componentType" : 5126,
            "count" : 8311,
            "type" : "VEC2"
        },
        {
            "bufferView" : 11,
            "componentType" : 5123,
            "count" : 41484,
            "type" : "SCALAR"
        },
        {
            "bufferView" : 12,
            "componentType" : 5126,
            "count" : 254,
            "max" : [
                0.23249466717243195,
                0.6532609462738037,
                -0.3069925606250763
            ],
            "min" : [
                -0.12952859699726105,
                -0.5497971177101135,
                -0.42244070768356323
            ],
            "type" : "VEC3"
        },
        {
            "bufferView" : 13,
            "componentType" : 5126,
            "count" : 254,
            "type" : "VEC3"
        },
        {
            "bufferView" : 14,
            "componentType" : 5126,
            "count" : 254,
            "type" : "VEC2"
        },
        {
            "bufferView" : 15,
            "componentType" : 5123,
            "count" : 1488,
            "type" : "SCALAR"
        }
    ],
    "bufferViews" : [
        {
            "buffer" : 0,
            "byteLength" : 56184,
            "byteOffset" : 0
        },
        {
            "buffer" : 0,
            "byteLength" : 56184,
            "byteOffset" : 56184
        },
        {
            "buffer" : 0,
            "byteLength" : 37456,
            "byteOffset" : 112368
        },
        {
            "buffer" : 0,
            "byteLength" : 48768,
            "byteOffset" : 149824
        },
        {
            "buffer" : 0,
            "byteLength" : 4920,
            "byteOffset" : 198592
        },
        {
            "buffer" : 0,
            "byteLength" : 4920,
            "byteOffset" : 203512
        },
        {
            "buffer" : 0,
            "byteLength" : 3280,
            "byteOffset" : 208432
        },
        {
            "buffer" : 0,
            "byteLength" : 3840,
            "byteOffset" : 211712
        },
        {
            "buffer" : 0,
            "byteLength" : 99732,
            "byteOffset" : 215552
        },
        {
            "buffer" : 0,
            "byteLength" : 99732,
            "byteOffset" : 315284
        },
        {
            "buffer" : 0,
            "byteLength" : 66488,
            "byteOffset" : 415016
        },
        {
            "buffer" : 0,
            "byteLength" : 82968,
            "byteOffset" : 481504
        },
        {
            "buffer" : 0,
            "byteLength" : 3048,
            "byteOffset" : 564472
        },
        {
            "buffer" : 0,
            "byteLength" : 3048,
            "byteOffset" : 567520
        },
        {
            "buffer" : 0,
            "byteLength" : 2032,
            "byteOffset" : 570568
        },
        {
            "buffer" : 0,
            "byteLength" : 2976,
            "byteOffset" : 572600
        }
    ],
    "buffers" : [
        {
            "byteLength" : 575576,
            "uri" : "data:application/octet-stream;base64,"
        }
    ]
}
